<svg width="467" height="130" viewBox="0 0 467 130" fill="none" xmlns="http://www.w3.org/2000/svg">
<g clip-path="url(#clip0_1_2)">
<path d="M205.58 0L163.7 129.07H191.84L228.29 16.74L264.74 129.07H292.87L250.99 0H205.58Z" fill="white"/>
<path d="M118.18 104.11V0H91.48V27.12C90.54 19.87 87.86 13.84 83.36 9.06C77.67 3.02 69.74 0 59.55 0H0V129.07H65C69.57 129.07 73.78 128.12 77.65 126.2C81.52 124.29 84.85 121.67 87.66 118.34C89.09 116.64 90.36 114.79 91.47 112.79V129.06H160.57L168.67 104.1H118.17L118.18 104.11ZM26.7 23.67H53.23C56.74 23.67 59.49 24.72 61.49 26.81C63.48 28.91 64.48 31.8 64.48 35.5V41.05C64.48 44.75 63.48 47.65 61.49 49.74C59.5 51.84 56.75 52.88 53.23 52.88H26.7V23.66V23.67ZM68.86 93.75C68.86 97.45 67.83 100.31 65.79 102.35C63.74 104.38 60.96 105.4 57.45 105.4H26.71V75.81H57.45C60.96 75.81 63.74 76.83 65.79 78.86C67.84 80.89 68.86 83.76 68.86 87.46V93.75ZM87.13 68.88C84.43 66.47 81.48 64.72 78.26 63.61C75.04 62.5 71.96 61.95 69.04 61.95V60.84C72.2 60.72 75.16 60.13 77.91 59.08C80.66 58.04 83.06 56.4 85.11 54.18C87.16 51.96 88.8 49.13 90.03 45.67C90.7 43.8 91.17 41.68 91.47 39.37V73.98C90.17 72.04 88.74 70.31 87.13 68.87" fill="white"/>
<path d="M421.55 53.07L462.83 0H432.61L405.03 36.43L387.64 61.39H386.59V0H359.89H336.91C336.82 0 336.74 0 336.65 0C336.53 0 336.41 0 336.28 0H335.64C317.9 0.22 304.07 5.87 294.54 16.83C285.08 27.5 280.28 43.67 280.28 64.88C280.28 86.09 284.96 101.55 294.18 112.2C303.45 123.39 317.06 129.06 334.64 129.06C334.98 129.06 335.3 129.03 335.64 129.03V129.05H359.89H386.59V93.18L402.58 72.84L435.08 129.05H466.52L421.55 53.05V53.07ZM336.93 104.88H335.64C325.99 104.8 318.65 101.3 313.81 94.43C308.64 87.63 306.02 77.69 306.02 64.89C306.02 52.09 308.64 41.44 313.79 34.66C319.11 27.94 326.79 24.53 336.64 24.53H359.88V104.88H336.92H336.93Z" fill="white"/>
</g>
<defs>
<clipPath id="clip0_1_2">
<rect width="466.52" height="129.07" fill="white"/>
</clipPath>
</defs>
</svg>
